<svg id="Guides" xmlns="http://www.w3.org/2000/svg" viewBox="0 0 605.41 128.6"><defs><style>.cls-1{fill:#0b3e40;}</style></defs><path class="cls-1" d="M83.79,25.37v.45c0,2.72-3.86,2.95-6.24,8.62L50.32,99.34c-1.47,3.4-3.52,4.76-6.81,4.76-2.95,0-4.76-1.47-6.12-4.42L7.32,34.56c-2.38-5.45-6.13-5.9-6.13-8.74v-.45c0-1.14,1.14-1.82,2.73-1.82H29.33c1.59,0,2.61.68,2.61,1.82v.45c0,2.84-6.58,4-4.65,8.74l21,50.6L68.13,34.44c1.82-4.76-5-5.9-5-8.62v-.45c0-1.14,1-1.82,2.61-1.82H81.18C82.77,23.55,83.79,24.23,83.79,25.37Z"/><path class="cls-1" d="M86.29,102.18v-.46c0-2.83,4.31-3.74,4.31-8.62V67.46c0-5-4.31-6.24-4.31-8.74v-.34c0-1,.91-1.59,2.38-2.38l14.18-7c2.84-1.37,4.65.22,4.65,2.27V93.1c0,4.88,4.77,5.79,4.77,8.62v.46c0,1.13-1,1.92-2.61,1.92H88.78C87.31,104.1,86.29,103.31,86.29,102.18Zm1.59-70.57c0-5.68,4.54-9.87,11.23-9.87s11,4.19,11,9.87-4.31,10-11,10S87.88,37.39,87.88,31.61Z"/><path class="cls-1" d="M169.23,88.11c-.57,6.58-7.38,17.13-22.58,17.13-16.68,0-28.48-11.57-28.48-28.82,0-16.68,12.48-27.79,27.8-27.91,12.7-.11,21.67,5.9,21.67,15.89,0,8.17-7.49,14.52-18.16,16.45a49.59,49.59,0,0,1-13.95.68c2.95,7.26,8.73,11.91,16.34,11.91,6.58,0,11.34-3.06,13.5-6.58C166.73,85.16,169.45,85.73,169.23,88.11Zm-36-19.18a36.68,36.68,0,0,0,.68,7.15,38.49,38.49,0,0,0,10.44-.57c4.76-.9,7.83-4,7.83-11.79-.12-5.45-3.52-10-8.4-10C137.46,53.73,133.26,60.2,133.26,68.93Z"/><path class="cls-1" d="M238.32,101.84v.45c0,1.13-1,1.93-2.61,1.93H216.08c-1.59,0-2.61-.8-2.61-1.93v-.45c0-2.84,4.32-3.75,4.09-8.74l-1.14-21C215.86,60,212.57,55,206.55,55s-9.64,5.1-9.64,12.48V93.21c0,4.88,4.88,5.79,4.88,8.63v.45c0,1.13-1,1.93-2.61,1.93h-21.1c-1.59,0-2.61-.8-2.61-1.93v-.45c0-2.84,4.87-3.75,4.87-8.63V66.78c0-5.11-5.55-5.56-5.55-8.4v-.45c0-1.14.9-1.7,2.27-2.38L190.56,49c2.61-1.37,3.85.22,3.85,2.38V57.7c3.07-5.78,9.08-9.19,16.79-9.19,10.33,0,20.31,6.13,21.67,24.17l1.37,20.42C234.58,98.09,238.32,99,238.32,101.84Z"/><path class="cls-1" d="M243.88,102.18v-.46c0-2.83,4.31-3.74,4.31-8.62V67.46c0-5-4.31-6.24-4.31-8.74v-.34c0-1,.91-1.59,2.38-2.38l14.19-7c2.83-1.37,4.65.22,4.65,2.27V93.1c0,4.88,4.76,5.79,4.76,8.62v.46c0,1.13-1,1.92-2.61,1.92H246.38C244.9,104.1,243.88,103.31,243.88,102.18Zm1.59-70.57c0-5.68,4.54-9.87,11.23-9.87s11,4.19,11,9.87-4.31,10-11,10S245.47,37.39,245.47,31.61Z"/><path class="cls-1" d="M578.53,102.18v-.46c0-2.83,4.31-3.74,4.31-8.62V67.46c0-5-4.31-6.24-4.31-8.74v-.34c0-1,.91-1.59,2.38-2.38l14.19-7c2.83-1.37,4.65.22,4.65,2.27V93.1c0,4.88,4.76,5.79,4.76,8.62v.46c0,1.13-1,1.92-2.61,1.92H581C579.55,104.1,578.53,103.31,578.53,102.18Zm1.59-70.57c0-5.68,4.54-9.87,11.23-9.87s11,4.19,11,9.87-4.32,10-11,10S580.12,37.39,580.12,31.61Z"/><path class="cls-1" d="M567.3,92.53V51c0-1.93-1.37-2.38-4.31-2l-14.53,2.15a2.54,2.54,0,0,0-2.27,2.38v.34c0,2.5,4.54,3.64,4.54,8.63v23c0,8-4.31,13.27-9.76,13.27-6.23,0-9.41-4.88-9.41-15.43L531.9,51c0-1.93-1.7-2.38-4.65-2L513,51.12a2.55,2.55,0,0,0-2.38,2.38v.34c0,2.5,4.42,3.64,4.42,8.63V81.64c0,15.54,9.42,23.6,21.11,23.6,7.82,0,13.38-2.84,16.45-7.83.34,5.56,3.63,7.38,10.09,7.38s10.1-.69,10.1-3.29C572.74,97.3,567.3,101.5,567.3,92.53Z"/><path class="cls-1" d="M506.19,113.46a63.56,63.56,0,0,1-13.48,3.34c-13.42-.35-17-6.82-27.5-12l7.35-.14C491.28,101.5,505,85.61,505,64.28c0-23.37-16.91-41.86-39.71-41.86-23.72,0-39.83,17.24-39.83,41.63,0,15.92,8.19,29.39,20.72,36.26-10.35.89-17.12,8.1-19.4,10.78a2.39,2.39,0,0,0,3,3.62c3.44-2,10.85-5.24,22.29-2.24,13.27,3.47,21.93,17.08,38,15.73,12.75-1.06,16.91-8.34,18.27-12.59A1.72,1.72,0,0,0,506.19,113.46Zm-47-83.67c16,0,28.59,25.3,28.59,47.54,0,11.8-6.81,20.53-17.36,20.53-15.88,0-28.25-24-28.25-47.3C442.15,38,448.73,29.79,459.17,29.79Z"/><path class="cls-1" d="M356.6,44.42a1.16,1.16,0,0,0,1.34-1v0a10.74,10.74,0,0,1,.28-1.25,16.67,16.67,0,0,0,1.49,1.66,18.14,18.14,0,0,0,2.54,2.08l.69.44.71.41a14.41,14.41,0,0,0,1.48.72,8.72,8.72,0,0,0,3.23.74.58.58,0,0,0,.51-.3.57.57,0,0,0-.23-.77l-.06,0-2.6-1.4a22.86,22.86,0,0,1-2.5-1.57,24.09,24.09,0,0,1-2.27-1.88c-.37-.33-.7-.7-1-1s-.65-.74-1-1.1l-.05,0c.16-.25.32-.5.5-.74a6.44,6.44,0,0,1,.48-.56c.16-.17.37-.36.51-.48l.06,0a.66.66,0,0,0,.16-.85.67.67,0,0,0-.92-.26,8.08,8.08,0,0,0-1.47,1.13,10.27,10.27,0,0,0-1.18,1.37,11.66,11.66,0,0,0-.91,1.57,12.34,12.34,0,0,0-.66,1.69s0,.11,0,.16A1.17,1.17,0,0,0,356.6,44.42Z"/><path class="cls-1" d="M367.12,40.8a2.51,2.51,0,0,1-.69,0,.27.27,0,0,1-.13-.07.39.39,0,0,1-.12-.19.67.67,0,0,1,0-.53,1.86,1.86,0,0,1,.44-.61l0,0a.55.55,0,0,0,.07-.7.53.53,0,0,0-.74-.13,3,3,0,0,0-.88.9,2,2,0,0,0-.27,1.42,2.05,2.05,0,0,0,.29.71,1.78,1.78,0,0,0,.65.57,3.22,3.22,0,0,0,1.29.26h.11a4.4,4.4,0,0,0,.57.29,6.94,6.94,0,0,0,1.13.34,4.2,4.2,0,0,0,2.53-.16,3,3,0,0,0,1.19-.9,3.32,3.32,0,0,0,.63-1.28,6.17,6.17,0,0,0,.08-2.37,12.33,12.33,0,0,0-1.39-4,.64.64,0,0,0-1.18.47v0a17,17,0,0,1,.69,3.72,4.62,4.62,0,0,1-.17,1.63,1.08,1.08,0,0,1-.69.78,3.73,3.73,0,0,1-1.44.22,4.7,4.7,0,0,1-.84-.1l-.31-.09-.08,0-.11,0-.17,0a1.15,1.15,0,0,0-.24,0A1.6,1.6,0,0,0,367.12,40.8Zm.2,1.62h0S367.34,42.42,367.32,42.42Z"/><path class="cls-1" d="M371.64,23.22l.09,0a15.5,15.5,0,0,0,1.83.27c.62.07,1.24.11,1.86.14s1.24.05,1.87,0a10.5,10.5,0,0,0,1.91-.2h0a.85.85,0,0,0,.61-.48.87.87,0,0,0-.43-1.16,7.81,7.81,0,0,0-1.91-.59,11.88,11.88,0,0,0-2-.22,12.06,12.06,0,0,0-2,.09,7.62,7.62,0,0,0-2,.48.86.86,0,0,0,.12,1.63Z"/><path class="cls-1" d="M358.54,23.11h0c.69,0,1.36,0,2,0h4c.67,0,1.37,0,2,0h.07a.84.84,0,0,0,.28-1.62,9.56,9.56,0,0,0-2.17-.58,13.59,13.59,0,0,0-2.2-.17,14.86,14.86,0,0,0-2.21.18,10.54,10.54,0,0,0-2.14.56.86.86,0,0,0-.55.76A.85.85,0,0,0,358.54,23.11Z"/><path class="cls-1" d="M328.11,22.09a135.49,135.49,0,0,0-18.47-.27l-.86,4.4a1.12,1.12,0,0,0-.19.24h0c-.79,1.39-1.55,2.79-2.3,4.2s-1.47,2.83-2.15,4.3a20.53,20.53,0,0,0-.95,2.35,3.83,3.83,0,0,0-.15.75,5.43,5.43,0,0,0,0,.69,5.1,5.1,0,0,0,0,.68q0,.33.06.66a13.78,13.78,0,0,0,.58,2.5,17,17,0,0,0,.74,1.9,27.52,27.52,0,0,0-1,2.71,27.13,27.13,0,0,0-.77,3.26,23.49,23.49,0,0,0-.07,6.75,29.88,29.88,0,0,0,.64,3.29,23.33,23.33,0,0,0,1.06,3.26,12.74,12.74,0,0,0,1.86,3.13,10.41,10.41,0,0,0,2.9,2.43,12.84,12.84,0,0,0,3.43,1.27A19.64,19.64,0,0,0,315,71c.31.44.61.89.91,1.34l0,.05-.29.13c-.48.28-1,.53-1.46.85l-.71.45-.68.5c-.46.33-.88.71-1.31,1.08a18,18,0,0,0-2.27,2.51,8,8,0,0,0-.49.7l-.44.73c-.13.25-.26.48-.37.73l-.08-.07c-1.38-1.26-2.76-2.52-4.16-3.76a3.71,3.71,0,0,0,.91-.33A3,3,0,0,0,306,74a5.85,5.85,0,0,0,.12-2h0a.81.81,0,0,0-.57-.73l-.06,0a20.15,20.15,0,0,1-6.12-3A14.6,14.6,0,0,1,296.88,66a5.92,5.92,0,0,0-1.68-1.38,4.14,4.14,0,0,0-2.31-.47,4.69,4.69,0,0,0-2.17.79,6.1,6.1,0,0,0-1.55,1.53,5.06,5.06,0,0,0-.91,2.08c0,.06,0,.11,0,.17a2.92,2.92,0,0,0-.61.31,4.47,4.47,0,0,0-1.18,1.11,5.85,5.85,0,0,0-.73,1.34,5.68,5.68,0,0,0-.22.7,4.78,4.78,0,0,0-.15.77l0-.17a3.71,3.71,0,0,0-.09.9c0,.13,0,.27,0,.39l.05.36a5.11,5.11,0,0,0,.13.59,3.34,3.34,0,0,0-1.91,1.27,4.81,4.81,0,0,0-.38,3.6,5,5,0,0,0,.16,5.93c1.41,2,4.12,4.08,6.82,4.08h.27A4,4,0,0,0,294,87.41a4.35,4.35,0,0,0,1.89-1.18l.2.4c.15.34.28.69.41,1.06a16.48,16.48,0,0,1,.58,2.25,22.58,22.58,0,0,1,.36,2.33c.09.79.16,1.58.2,2.37A30.39,30.39,0,0,0,299.73,105a19.7,19.7,0,0,0,2.82,4.79,13.67,13.67,0,0,0,4.33,3.64,15.26,15.26,0,0,0,5.3,1.42c.88.1,1.75.16,2.6.23a15,15,0,0,1,1.8.2c5.41,2.83,18.73,4.82,34.32,4.82,20.37,0,36.89-3.41,36.89-7.61a2.37,2.37,0,0,0-.52-1.42,57.46,57.46,0,0,0-.06-24.92c.44.05.88.08,1.31.09a12.81,12.81,0,0,0,1.88-.13c.59-.1,1.13-.17,1.75-.3a16.19,16.19,0,0,0,6.61-3.15,20.64,20.64,0,0,0,4.72-5.39,30.86,30.86,0,0,0,2.88-6.31A49.43,49.43,0,0,0,408,64.33a55.92,55.92,0,0,0,.8-6.67A90,90,0,0,0,408.5,45a6.45,6.45,0,0,0,.88-.14,4.49,4.49,0,0,0,1.66-.8,5.08,5.08,0,0,0,.68-.63,3.6,3.6,0,0,0,.39-.47l0,0a4.66,4.66,0,0,0,1.22-.47,4.21,4.21,0,0,0,1.25-1.08,8.42,8.42,0,0,0,1.31-2.7,10.52,10.52,0,0,0,.38-1.45,3.23,3.23,0,0,0-.19-1.72,2.81,2.81,0,0,0-1.21-1.31,3.84,3.84,0,0,0-.76-.32,3.11,3.11,0,0,0-.41-.11,4,4,0,0,0-.55-1,3.52,3.52,0,0,0-1.19-1,4.51,4.51,0,0,0-1.44-.47,6,6,0,0,0-.61-.05,5,5,0,0,0,0-.55,3.12,3.12,0,0,0-.43-1.5,2.63,2.63,0,0,0-1.29-1.07,2.91,2.91,0,0,0-1.49-.19,4.68,4.68,0,0,0-.67.12l-.08,0v0s0,0,0,0a.12.12,0,0,1-.05.05s-.06,0-.07,0a.13.13,0,0,1,0-.06s0,0,0-.06,0-.08,0-.13l0-.17a4.52,4.52,0,0,0-1.24-2.55,6,6,0,0,0-1.12-.9,4.73,4.73,0,0,0-1.4-.57,4.07,4.07,0,0,0-.78-.11,7,7,0,0,0-.79,0c-.25,0-.51.09-.75.16a5.41,5.41,0,0,0-.71.25,7.26,7.26,0,0,0-2.3,1.63,7,7,0,0,0-1.55,2.37,9.4,9.4,0,0,1-.89,1.67A11.47,11.47,0,0,1,393,31.4,14.49,14.49,0,0,1,389.86,34l-.93.51-.06,0-.07,0-.09.06a3.3,3.3,0,0,0-.35.28,2,2,0,0,0-.4.64c0,.11-.07.23-.1.34l0,.31a2.57,2.57,0,0,0,.05.57,2.89,2.89,0,0,0,1,1.56,4.3,4.3,0,0,0,.66.42l.33.16.33.12a7.24,7.24,0,0,0,2.56.31c.41,0,.8-.07,1.2-.11l.69-.13c-.17.48-.35,1-.52,1.46-.24.72-.48,1.45-.71,2.18l-.33,1.1-.16.55c-.05.19-.1.41-.16.61a7.42,7.42,0,0,0-.16,2.69c0,.07,0,.14.05.21l-.09.63a8.2,8.2,0,0,1-.18.86,8.37,8.37,0,0,1-.23.86,16.83,16.83,0,0,1-1.39,3.27c-.32.5-.6,1-1,1.5-.18.24-.34.49-.52.72l-.57.69-.29.34-.31.33-.61.64c-.43.42-.88.81-1.32,1.21l-.08.08-.05,0a1,1,0,0,0-.13.16c-.35-.18-.71-.34-1.07-.49a27,27,0,0,0-4.65-1.48L379,57l-.29,0a13.57,13.57,0,0,0,1.7-2.07,15.35,15.35,0,0,0,1.75-3.54A16.46,16.46,0,0,0,383,47.5c0-.64.05-1.3,0-1.92s0-1.21-.08-1.82c-.07-1.21-.2-2.42-.36-3.63s-.4-2.42-.69-3.61c-.14-.6-.31-1.19-.5-1.78-.1-.3-.2-.59-.31-.89s-.14-.35-.22-.53a19,19,0,0,0,1.52-6.38,20.33,20.33,0,0,0-.06-3.49,17.4,17.4,0,0,0-.26-1.74c-.07-.37-.15-.74-.25-1.11a2.54,2.54,0,0,0,.32-.34,3.48,3.48,0,0,0,.55-1,4.34,4.34,0,0,0,.17-1.11c0-.18,0-.35,0-.53l0-.23a2.29,2.29,0,0,0,.09-.28,4.39,4.39,0,0,0,.13-.52,7.21,7.21,0,0,0,.13-1,7.34,7.34,0,0,0-.24-2.09A7.44,7.44,0,0,0,381.66,11a7.86,7.86,0,0,1-.61,1.19,5.84,5.84,0,0,1-1.34,1.47.62.62,0,0,1-.88-.85l0,0a10.13,10.13,0,0,0,.87-1.36,14.9,14.9,0,0,0,.64-1.53c.2-.6.36-1.22.51-1.84l0-.4a1.92,1.92,0,0,0-.43-.67,4.56,4.56,0,0,0-.65-.83A4.53,4.53,0,0,0,377.53,5a6.52,6.52,0,0,0-1.16-.12h-.49a2.53,2.53,0,0,0-.13-.22,3.69,3.69,0,0,0-2.38-1.54,4.61,4.61,0,0,0-1.22-.06,1.47,1.47,0,0,1,.1.13A8,8,0,0,1,373,4.43a.75.75,0,0,1-.21,1,.73.73,0,0,1-1.06-.22l0,0a6.66,6.66,0,0,0-.65-1,7.4,7.4,0,0,0-.83-.85c-.17-.15-.35-.29-.53-.43h0a7.17,7.17,0,0,0-1.46-.55,8.24,8.24,0,0,0-3-.21,7.83,7.83,0,0,0-2.87.81,6.49,6.49,0,0,0-1.29.87l-.32.31a2.91,2.91,0,0,0-.42-.25,2.82,2.82,0,0,0-1.75-.2,4.63,4.63,0,0,0-1.12.4h0a4.47,4.47,0,0,1,1.77,1.16,2.87,2.87,0,0,1,.71,2,.64.64,0,0,1-.51.61.63.63,0,0,1-.61-.24l-.07-.1a11.41,11.41,0,0,0-.84-1,3.87,3.87,0,0,0-1.11-.72,6.91,6.91,0,0,0-1.56-.47h0a5,5,0,0,0-.69.36A6,6,0,0,0,353,7a6.83,6.83,0,0,0-1.28,3.08,1.34,1.34,0,0,0-.26.09,8.08,8.08,0,0,0-.8.35,7.88,7.88,0,0,0-1.46,1,6.73,6.73,0,0,0-2,2.93,8.38,8.38,0,0,0-.38,3.42,14.37,14.37,0,0,0,.7,3.24l.27.77c.09.25.2.49.3.73l.09.24-.17,0a3.89,3.89,0,0,0-2.71,1,4.4,4.4,0,0,0-1.16,1.78,37.12,37.12,0,0,0-9.27-7.09l0,0c-10.08-4.51-21.21-1.6-21.31-1.57a5,5,0,0,0-3.51,3.22,56.58,56.58,0,0,1,18.17,1.32A.32.32,0,0,1,328.11,22.09Zm62.09,14.2v0a0,0,0,0,1,0,0h0S390.19,36.3,390.2,36.29Zm-.28.42,0,0,0,0ZM343.77,52.5a7.75,7.75,0,0,0-.09-.87l.53-.32a14.26,14.26,0,0,0,1.52-1.13,15.68,15.68,0,0,0,2.34-2.41l.4,9.32a10.69,10.69,0,0,0-1.92.6,13.29,13.29,0,0,0-2.6,1.4A14.63,14.63,0,0,0,341.68,61c-.17.17-.32.34-.48.52l.35-5.12A4.72,4.72,0,0,0,343,55.06a5.74,5.74,0,0,0,.34-.55l.15-.35.11-.35A4.68,4.68,0,0,0,343.77,52.5Zm1.48-13.16-.33,0,.87-7.28.23.28a4.44,4.44,0,0,0,.43.44l-.05.09a7.06,7.06,0,0,0-.29.81A4.28,4.28,0,0,0,346,35.5a3.76,3.76,0,0,0,.74,1.68,4.4,4.4,0,0,0,.92.91l.07,1.67a2,2,0,0,0-.31-.12A5.61,5.61,0,0,0,345.25,39.34Zm8.63-26.7a4.53,4.53,0,0,1,.38-.72,2.64,2.64,0,0,1,.62-.64.56.56,0,0,1,.77.11.65.65,0,0,1,.11.29l0,.41a3.78,3.78,0,0,1-.08.51,5.07,5.07,0,0,0-.09.54q-.08.54-.12,1.11c0,.38,0,.77,0,1.18,0,.2,0,.41,0,.62s0,.42,0,.64v.06a.63.63,0,0,1-.64.61.62.62,0,0,1-.52-.3,5.75,5.75,0,0,1-.34-.65,5.93,5.93,0,0,1-.24-.71,5.4,5.4,0,0,1-.2-1.51A4.7,4.7,0,0,1,353.88,12.64Zm-3.58,8.24a5.06,5.06,0,0,1,.76-1.5.6.6,0,0,1,.85-.11.61.61,0,0,1,.22.66l0,.09a9.22,9.22,0,0,0-.32,1.23,5.16,5.16,0,0,0-.08,1.23,3.84,3.84,0,0,0,.22,1.16,6.29,6.29,0,0,0,.54,1.11l0,.08a.62.62,0,0,1-.24.83.64.64,0,0,1-.7-.08,4.56,4.56,0,0,1-.79-.9.85.85,0,0,0-.12-.36,2.7,2.7,0,0,0-.26-.36c-.07-.18-.12-.36-.18-.54a5.08,5.08,0,0,1-.12-.86A4.94,4.94,0,0,1,350.3,20.88Zm-4.68,5.75a2.92,2.92,0,0,1,.85-1.56,2.1,2.1,0,0,1,1.52-.6,1.46,1.46,0,0,1,1.08.52l.75,1.93,2.26,5.78a.89.89,0,0,0,1.06.53.88.88,0,0,0,.63-1.09v0a5,5,0,0,1-.13-.69c0-.25,0-.51-.05-.76a8.59,8.59,0,0,1,.13-1.52,7.86,7.86,0,0,1,1.11-2.83A6.75,6.75,0,0,0,356,22.63a6.93,6.93,0,0,0-.28-1.93,8.61,8.61,0,0,0-.34-.89c.22-.12.43-.24.64-.38a12.48,12.48,0,0,0,1.37-1,11.52,11.52,0,0,0,1.2-1.22,7.61,7.61,0,0,0,.55-.72h0a3.64,3.64,0,0,0,.86.17,4.05,4.05,0,0,0,1.35-.11l.06,0,.07,0c.09-.06.27-.16.41-.26a3.36,3.36,0,0,0,.43-.31,5.29,5.29,0,0,0,.77-.72,4.14,4.14,0,0,0,1-1.75,4.93,4.93,0,0,0,0-2.06,4.25,4.25,0,0,0-.35-1,4.9,4.9,0,0,0-.53-.93l-.05-.07a.6.6,0,0,1,.15-.84.59.59,0,0,1,.74,0,5.1,5.1,0,0,1,1,1.08,6.42,6.42,0,0,1,.65,1.28,6.06,6.06,0,0,1,.26,2.9A5.7,5.7,0,0,1,365,16l.13,0a8.36,8.36,0,0,0,2.3.33,13.14,13.14,0,0,0,1.87-.12c.2-.2.41-.37.6-.55a4.58,4.58,0,0,0,.51-.59c.08-.11.16-.2.23-.31s.11-.21.17-.32a1.36,1.36,0,0,0,.14-.33,1.17,1.17,0,0,0,.11-.33,4.31,4.31,0,0,0,.13-1.44c0-.5-.12-1-.19-1.56v-.12a.6.6,0,0,1,.53-.68.62.62,0,0,1,.55.21,3.72,3.72,0,0,1,.56.92,3.94,3.94,0,0,1,.31,1,4.63,4.63,0,0,1-.16,2.18,4.73,4.73,0,0,1-.89,1.56,8.08,8.08,0,0,0,.8.35,8.7,8.7,0,0,0,2,.46,5.71,5.71,0,0,0,2.16-.13,4.83,4.83,0,0,0,1-.42l.9,1.71c.24.45.44.89.64,1.34s.39.92.53,1.35h0a14.41,14.41,0,0,1,.35,1.5c.1.53.17,1.05.22,1.58a18.88,18.88,0,0,1,0,3.19,17.52,17.52,0,0,1-1.58,6.12h0a.84.84,0,0,0,0,.68l0,.11c.07.2.16.5.23.76s.14.54.21.81c.11.56.22,1.12.31,1.68.19,1.13.3,2.28.4,3.42s.13,2.31.13,3.47c0,.57,0,1.15,0,1.73s-.05,1.09-.11,1.63a12.74,12.74,0,0,1-2.23,5.87A11.76,11.76,0,0,1,373.05,57a11.46,11.46,0,0,1-3,.85,13.13,13.13,0,0,1-1.54.11c-.55,0-1.11,0-1.67,0a18.78,18.78,0,0,1-6.33-1.4,14.17,14.17,0,0,1-5.1-3.67A21.22,21.22,0,0,1,352,47.08h0a.66.66,0,0,0-.67-.39.68.68,0,0,0-.6.73,15.42,15.42,0,0,0,2.5,7.1,13.49,13.49,0,0,0,2.64,2.91,14.57,14.57,0,0,0,3.35,2.09,21.64,21.64,0,0,0,7.47,1.71c.63,0,1.25.05,1.88.06a14.86,14.86,0,0,0,2-.16,9.63,9.63,0,0,0,1.07-.21v7.37a29.64,29.64,0,0,1-5.48-1,26.54,26.54,0,0,1-3-1,27.77,27.77,0,0,1-2.86-1.37,28.65,28.65,0,0,1-5.18-3.62c-.8-.69-1.54-1.44-2.27-2.2L351.74,58c-.31-.31-.63-.64-.93-.93l-1-12.6a4.29,4.29,0,0,0,.14-.81,4.12,4.12,0,0,0-.36-2.07l-.31-4a.88.88,0,0,0-.37-.65h0a3.63,3.63,0,0,1-.87-.77,2.19,2.19,0,0,1-.42-1,2.74,2.74,0,0,1,.08-1.09,4.05,4.05,0,0,1,.2-.55,3.59,3.59,0,0,1,.27-.49v0A.87.87,0,0,0,348,31.9h0l-.15-.11-.18-.16c-.12-.11-.24-.24-.36-.37a6.87,6.87,0,0,1-.64-.84,9.51,9.51,0,0,1-.53-.94,9.1,9.1,0,0,1-.42-.95A4.7,4.7,0,0,1,345.62,26.63Zm-18.06,1.56h0Zm-16.9,38.17a7.17,7.17,0,0,1-2-1.62,9.61,9.61,0,0,1-1.4-2.31,26.22,26.22,0,0,1-1.68-5.69,23.18,23.18,0,0,1-.31-5.94,25.46,25.46,0,0,1,.43-3c.2-1,.46-2,.75-3l0-.15a.86.86,0,0,0-.09-.68h0a14.39,14.39,0,0,1-1.32-4.19,3.05,3.05,0,0,1-.05-.52,4.35,4.35,0,0,1,0-.51,3.89,3.89,0,0,1,0-.49,1.94,1.94,0,0,1,.07-.42c.13-.41.32-.87.52-1.33a6.17,6.17,0,0,0,.62-.11,7.87,7.87,0,0,0,2.26-.87,4,4,0,0,0,1-.79,1,1,0,0,0,.24-.55.92.92,0,0,0-.86-1,4,4,0,0,0-1.26.11,4.61,4.61,0,0,0-.53.15c.32-.63.64-1.26,1-1.88.66-1.24,1.33-2.47,2-3.7a75.5,75.5,0,0,1,10.74-.46,44.53,44.53,0,0,1,5.56.52l.68.12.34.05.08,0h0l.06,0c.34.16.78.39,1.17.61.81.45,1.62.93,2.42,1.43s1.57,1,2.33,1.54a20.56,20.56,0,0,1,2.13,1.69,5.42,5.42,0,0,1,.41.43,1.53,1.53,0,0,1,.2.28,2.64,2.64,0,0,1,.07.44c0,.2,0,.41,0,.63,0,.89-.09,1.82-.19,2.75-.2,1.86-.49,3.72-.84,5.57A41.5,41.5,0,0,1,334,49v0a1.07,1.07,0,0,0-.05.44,1,1,0,0,0,1.15.9l3-.36a1,1,0,0,0,.88-.8h0a14.67,14.67,0,0,1,2.74-5.65A4.74,4.74,0,0,1,343.93,42a6.11,6.11,0,0,1,1.39-.18,3.09,3.09,0,0,1,1.2.19,1.19,1.19,0,0,1,.79,1.39,3.48,3.48,0,0,1-.39,1.15,5.08,5.08,0,0,1-.35.59l-.21.29-.25.3a13.34,13.34,0,0,1-2.21,2.17,13,13,0,0,1-1.27.87l-.66.37-.33.15-.28.12-.83,2.08a2.15,2.15,0,0,1,.14.27l.14.33a4.34,4.34,0,0,1,.18.63,3.44,3.44,0,0,1,0,.51.31.31,0,0,0,0,.1s0,0,0,.07a1.39,1.39,0,0,1-.1.26,2.29,2.29,0,0,1-.83.87,4,4,0,0,1-.62.31l-.35.11-.31.08-.18.05a1,1,0,0,0,.28,2h.2l.56,6.15a.82.82,0,0,0-.16.34h0c-.36,1.13-.65,2.15-1.07,3.13A16.48,16.48,0,0,1,337,69.5a20.26,20.26,0,0,1-4.28,4.64A28.38,28.38,0,0,1,330.08,76a12.92,12.92,0,0,1-2.72,1.32,15.92,15.92,0,0,1-3,.72c-.51.07-1,.12-1.55.16l-.58,0c-.27-.68-.56-1.35-.89-2a24.82,24.82,0,0,0-1.67-2.77A27.52,27.52,0,0,0,317.72,71c.5,0,1,0,1.49-.07s1.11-.07,1.66-.14,1.1-.15,1.65-.24a24.11,24.11,0,0,0,6.43-2,22.49,22.49,0,0,0,5.5-3.78,1,1,0,0,0-1.29-1.6h0a24.92,24.92,0,0,1-5.3,2.89,23.79,23.79,0,0,1-5.79,1.41c-.5.06-1,.11-1.51.14s-1,.07-1.51.08c-1,0-2.05,0-3,0A12.3,12.3,0,0,1,310.66,66.36Zm-20.24,2.52a2.89,2.89,0,0,1,.52-1.18,3.3,3.3,0,0,1,2.15-1.46,2.68,2.68,0,0,1,2.26,1.11,11.6,11.6,0,0,0,1.39,1.33,18.61,18.61,0,0,0,1.5,1.15,21.37,21.37,0,0,0,6.21,2.91,3.1,3.1,0,0,1-.1.83,1.18,1.18,0,0,1-.58.81,2.28,2.28,0,0,1-1.2.2,5.53,5.53,0,0,1-1.41-.3l-.05,0h0l-.15,0c-.77-1.21-1.52-2.42-2.24-3.64h0a.86.86,0,0,0-1.14-.32.87.87,0,0,0-.36,1.17c1.14,2.15,2.4,4.2,3.61,6.26.61,1,1.23,2.06,1.78,3.07.14.26.27.51.37.73a1.65,1.65,0,0,1,.12.54,2,2,0,0,1-.24,1.11,1.16,1.16,0,0,1-.73.56,1.75,1.75,0,0,1-1.05-.17,3.11,3.11,0,0,1-.61-.34,6.28,6.28,0,0,1-.58-.47l-.22-.21,1.6-2a.42.42,0,0,0,0-.51.43.43,0,0,0-.59-.1l-2.05,1.49a61.15,61.15,0,0,1-4.2-5.52c-.66-1-1.33-2-1.95-3s-1.25-2-1.74-3l-.18-.36c-.05-.12-.07-.2-.11-.3h0v0l0-.09s0,0,0,0A.9.9,0,0,1,290.42,68.88Zm-2.91,4.44,0-.17a3.51,3.51,0,0,1,.08-.44,3.68,3.68,0,0,1,.15-.47,3.57,3.57,0,0,1,.44-.82,2.47,2.47,0,0,1,.53-.54h0c.57,1.16,1.2,2.19,1.83,3.23s1.31,2.06,2,3a61.62,61.62,0,0,0,4.49,5.8l.31.34-.15.11a2.31,2.31,0,0,1-.74.25,2.86,2.86,0,0,1-1.66-.35l-.42-.25c-.15-.08-.3-.21-.45-.31l-.46-.32-.44-.35-.43-.35-.42-.38c-.28-.25-.54-.52-.8-.79A17,17,0,0,1,288.74,77a11.35,11.35,0,0,1-.91-2,3.22,3.22,0,0,1-.16-.5,3.15,3.15,0,0,1-.11-.47l0-.23a1.48,1.48,0,0,1,0-.2A2.71,2.71,0,0,1,287.51,73.32Zm-2.1,4.25a1.52,1.52,0,0,1,.87-.47q.24.51.51,1a20.24,20.24,0,0,0,3,4,12.46,12.46,0,0,0,.91.87l.47.43.49.39.5.39.51.37c.18.12.34.24.54.36l.42.24a2.57,2.57,0,0,1-1.79.11c-2.69-.67-6.59-5-6.59-6.35a1.26,1.26,0,0,0,0-.28A1.55,1.55,0,0,1,285.41,77.57Zm4.94,10.07c-1.85.11-4-1.54-5.15-3.13a2.93,2.93,0,0,1-.61-2.18c1.72,2.27,4.55,4.49,6.61,5.07A1.93,1.93,0,0,1,290.35,87.64Zm54,23.79a1.81,1.81,0,0,1-.31.38,2.9,2.9,0,0,1-.57.39,6.21,6.21,0,0,1-1,.42,14.44,14.44,0,0,1-2,.45,25.84,25.84,0,0,1-3.92.28,27.22,27.22,0,0,1-3.92-.29,14.07,14.07,0,0,1-2-.44,6.29,6.29,0,0,1-1-.42,2.86,2.86,0,0,1-.56-.39,1.54,1.54,0,0,1-.31-.38,1.27,1.27,0,0,1-.18-.64,1.42,1.42,0,0,1,.5-1,2.45,2.45,0,0,1,.57-.38,6.3,6.3,0,0,1,1-.39,14.42,14.42,0,0,1,2-.39,29,29,0,0,1,3.08-.22v1.49a27.13,27.13,0,0,0-2.86.26,11.92,11.92,0,0,0-1.74.39,4.17,4.17,0,0,0-.6.23,4.84,4.84,0,0,0,.61.21,13.55,13.55,0,0,0,1.75.34,26.31,26.31,0,0,0,3.67.21,29.76,29.76,0,0,0,3.67-.22,11.91,11.91,0,0,0,1.74-.33,4.34,4.34,0,0,0,.61-.21,3.45,3.45,0,0,0-.59-.23,13.39,13.39,0,0,0-1.74-.4,22.67,22.67,0,0,0-2.86-.25v-1.48a29.18,29.18,0,0,1,3.08.22,14.36,14.36,0,0,1,2,.38,6.3,6.3,0,0,1,1,.39,2.45,2.45,0,0,1,.57.38,1.51,1.51,0,0,1,.31.37,1.31,1.31,0,0,1,.19.64A1.38,1.38,0,0,1,344.31,111.43ZM327.94,89.74l-.28-.3c.91-.53,3.9-1.3,8.84-1.3s7.94.77,8.84,1.3l-.27.29c-1.14.52-4,1.16-8.57,1.16S329.09,90.25,327.94,89.74Zm8.56,2.82A40.66,40.66,0,0,0,343,92l-2,2.12a10.5,10.5,0,0,0-4.52-.79,10.73,10.73,0,0,0-4.49.77L330.07,92A41,41,0,0,0,336.5,92.56Zm0,2.46a13.36,13.36,0,0,1,2.77.26,15.47,15.47,0,0,1-5.54,0A13.28,13.28,0,0,1,336.5,95Zm0,2.17a18,18,0,0,0,1.81-.08L336.56,99l-1.78-1.91C335.44,97.18,336.05,97.19,336.5,97.19Zm.83,8.17v-4.72L346.18,91a1.87,1.87,0,0,0,1-1.33.28.28,0,0,0,0-.09s0,0,0,0v0s0-.06,0-.09c-.25-2.85-9.64-2.93-10.72-2.93s-10.49.08-10.72,2.93c0,0,0,.06,0,.09v0a.13.13,0,0,0,0,.06v.09A1.89,1.89,0,0,0,326.85,91l4.69,5.07s0,0,0,0l4.09,4.41v5c-12.78,1.2-21.67,3.85-21.67,6.94a1.48,1.48,0,0,0,.08.46c-.41-.17-.82-.34-1.21-.53a23.22,23.22,0,0,1-3.83-2.5c-.58-.44-1.13-.89-1.66-1.36a12,12,0,0,1-1.5-1.52,17.79,17.79,0,0,1-2.34-3.71A26.84,26.84,0,0,1,302,99c-.2-.76-.39-1.52-.55-2.3-.09-.39-.17-.78-.23-1.17L301,94.27c-.15-.85-.32-1.71-.53-2.56S300,90,299.64,89.2a15.21,15.21,0,0,0-1.12-2.43,9.44,9.44,0,0,0-.75-1.15l0-.06a3.38,3.38,0,0,0,.58-.27,4.55,4.55,0,0,0,.64-.44l.05,0,.24.18a5.62,5.62,0,0,0,1,.53,3.73,3.73,0,0,0,2.43.26,3.27,3.27,0,0,0,2-1.59,4.05,4.05,0,0,0,.48-2.35,3.81,3.81,0,0,0-.31-1.19c-.15-.32-.31-.6-.46-.87l-.1-.18c.64.69,1.29,1.38,1.94,2.06.84.87,1.69,1.73,2.55,2.59a31.24,31.24,0,0,1,2.41,2.52,21,21,0,0,1,3.47,5.78,22.46,22.46,0,0,1,1,3.24,27,27,0,0,1,.5,3.4v0a.84.84,0,0,0,.72.75.85.85,0,0,0,.95-.71,16.89,16.89,0,0,0-.75-7.58A19.72,19.72,0,0,0,313.19,85a32.75,32.75,0,0,0-2.67-2.62l-1.21-1.11a2.83,2.83,0,0,1,.2-.28c.15-.2.31-.39.47-.58a14.67,14.67,0,0,1,1-1.1,23.2,23.2,0,0,1,2.22-2,24.7,24.7,0,0,1,2.46-1.67c.41-.27.87-.48,1.3-.72a3.07,3.07,0,0,0,.43-.26l.09.15a28.92,28.92,0,0,1,1.31,2.61,21.27,21.27,0,0,1,1,2.69v0a1.49,1.49,0,0,0,1.3,1l1,0c.31,0,.62,0,.92,0,.61,0,1.22-.09,1.82-.18a18.69,18.69,0,0,0,3.58-.87,15.19,15.19,0,0,0,3.35-1.67,32.66,32.66,0,0,0,2.83-2.17,21.06,21.06,0,0,0,4.58-5.55,17.12,17.12,0,0,0,1.4-3.34,24.51,24.51,0,0,0,.61-2.68c.79.07,1.62.16,2.42.27,1.05.14,2.09.33,3.13.54a44.44,44.44,0,0,1,4.44,1.14c3.61,1.7,7.72,3.72,11.25,5.62.41.31.82.63,1.22,1a30.17,30.17,0,0,1,4.29,4.46,38.16,38.16,0,0,1,3.4,5.26c.75,1.38,1.43,2.8,2.06,4.25,2,7.35,4.38,16.71,4.76,19.79a90.39,90.39,0,0,0-11.35-1.56V96c0-.05,0-.09,0-.13s0-.07,0-.11c0-2.59-8.45-2.66-9.41-2.66s-9.41.07-9.41,2.66a.77.77,0,0,0,0,.15s0,.06,0,.09v9l-2.91-.07C342.35,105,339.78,105.16,337.33,105.36Zm20.11-6.79c4.29,0,6.61-.59,7.85-1.16v8.39c-.32.41-2,2-7.64,2-5.32,0-8.26-1.16-8.26-2V97.44C350.66,98,353,98.57,357.44,98.57Zm-7.95-2.8A7.32,7.32,0,0,1,352,95l-1.33,1.15a.52.52,0,0,0-.11.1A3.91,3.91,0,0,1,349.49,95.77Zm9,.6a.7.7,0,0,0-.34-.52l-2-1.27h1.16c.66,0,1.27,0,1.85,0l.65,2.29-1.5.07h0A.72.72,0,0,0,358.53,96.37Zm-1.85.25-.32.35a30.17,30.17,0,0,1-4-.35l1.83-1.56Zm4.06-1.9c.7.07,1.33.16,1.87.25l-.28,1.65-1,.14Zm3.12,1.58.18-1a3.94,3.94,0,0,1,1.15.47A4.3,4.3,0,0,1,363.86,96.3Zm1.32,19.9c-9.62,0-17.41-1.49-17.41-3.34s7.79-3.34,17.41-3.34,17.4,1.5,17.4,3.34S374.79,116.2,365.18,116.2ZM415,37.08a10.57,10.57,0,0,1-.35,1.22,7.19,7.19,0,0,1-1.12,2.25,2.77,2.77,0,0,1-.86.71L413.2,39a.43.43,0,0,0-.27-.52.44.44,0,0,0-.58.26l-1.19,3.13-.09.11s-.1.13-.17.2a2.39,2.39,0,0,1-.23.22,4.51,4.51,0,0,1-.54.35,7.5,7.5,0,0,1-1.19.46,6.27,6.27,0,0,1-1.31.18h-.29L409,37.85a.62.62,0,0,0-1.16-.42l-2.57,6a.36.36,0,0,0,0,.11.5.5,0,0,0,0,.13l-.23.09a4.11,4.11,0,0,1-.56.19,5.9,5.9,0,0,1-1.11.22,11.64,11.64,0,0,1-1.2,0c-.21,0-.43,0-.66,0h0c.5-1.44,1-2.87,1.45-4.32s.93-2.89,1.37-4.35h0a.83.83,0,0,0-1.58-.53L401,39.23l-1.59,4.26-.8,2.12-.41,1-.2.51a3.9,3.9,0,0,1-.19.35,2.28,2.28,0,0,1-1.14.95,1.44,1.44,0,0,1-1.23-.08,1.58,1.58,0,0,1-.62-1.1,5.31,5.31,0,0,1,.12-1.83l.1-.37,2.56.41a.44.44,0,0,0,.46-.25.43.43,0,0,0-.21-.57l-2.37-1.1.07-.23.64-2.16c.87-2.89,1.78-5.77,2.6-8.68h0A.65.65,0,0,0,397.6,32a60.05,60.05,0,0,0-2.39,5.54.51.51,0,0,0-.24,0h-1.12c-.35,0-.7,0-1-.07l-.5-.06-.48-.1a3,3,0,0,1-.45-.13l-.22-.07L391,37l-.19-.09-.16-.11a1.43,1.43,0,0,1-.26-.22l-.05-.06.76-.34a15.93,15.93,0,0,0,4-2.81,15.21,15.21,0,0,0,1.61-1.88A11.32,11.32,0,0,0,398,29.26a4.47,4.47,0,0,1,.92-1.34,4.67,4.67,0,0,1,1.34-.94,3.19,3.19,0,0,1,1.35-.29,3.5,3.5,0,0,1,.73.11,3.94,3.94,0,0,1,.77.29,2.37,2.37,0,0,1,1.11,1.18,1,1,0,0,1,0,.1s0,0,0,.15a1.37,1.37,0,0,0,.21.46,2,2,0,0,0,.33.38,3.89,3.89,0,0,0,.39.32,2.06,2.06,0,0,0,.48.21l.26.05.13,0h.07a3.22,3.22,0,0,1,.44.14,6.1,6.1,0,0,1,.69.3,5.3,5.3,0,0,1,.47.28,1.68,1.68,0,0,1,.71,1.42v0a.38.38,0,0,0,0,.15.72.72,0,0,0,.85.57,2.59,2.59,0,0,1,.51-.05,3.25,3.25,0,0,1,.54,0,3.36,3.36,0,0,1,1,.27,2.32,2.32,0,0,1,.77.62,2.87,2.87,0,0,1,.5.91v0a.67.67,0,0,0,.56.42,2.94,2.94,0,0,1,.54.12,2.6,2.6,0,0,1,.51.21,1.48,1.48,0,0,1,.65.69A1.83,1.83,0,0,1,415,37.08Z"/><path class="cls-1" d="M312.17,49.54a2.22,2.22,0,0,0,.17,1.41,2.38,2.38,0,0,0,.94,1,4.24,4.24,0,0,0,1,.45,10.38,10.38,0,0,0,1.89.38h.08a1,1,0,1,0,.09-2.08,8,8,0,0,1-1.53-.18,1.59,1.59,0,0,1-.87-.4c-.08-.06-.09-.4.13-.86l.64-1.63,2.56-6.48a.52.52,0,0,0-.95-.42h0l-3,6.21-.75,1.55-.23.48A4.25,4.25,0,0,0,312.17,49.54Z"/><path class="cls-1" d="M321.13,46.72a.83.83,0,0,0,1-.64V46a11.86,11.86,0,0,1,1-3,2.4,2.4,0,0,1,.71-.9.84.84,0,0,1,.69-.07l.06,0h.06l0,0s0,0,.06.08,0,0,0,.07l0,.1a3.71,3.71,0,0,1,.12,1.23,11.68,11.68,0,0,1-.62,3l0,0a.86.86,0,0,0,.25.91.85.85,0,0,0,1.19-.09,6.87,6.87,0,0,0,1-1.69,7.77,7.77,0,0,0,.57-1.94,5.1,5.1,0,0,0-.13-2.27l-.11-.31a2.59,2.59,0,0,0-.17-.33,2.38,2.38,0,0,0-.47-.61,2.9,2.9,0,0,0-.66-.49,3.43,3.43,0,0,0-2.09-.28,3.22,3.22,0,0,0-1.3.59A4.41,4.41,0,0,0,321,42.09a8.34,8.34,0,0,0-.48,1.94,10.19,10.19,0,0,0-.07,1.92A.83.83,0,0,0,321.13,46.72Z"/><path class="cls-1" d="M307.82,45.56a.51.51,0,0,0,.43.28.5.5,0,0,0,.52-.48h0a23.11,23.11,0,0,1,.19-2.89,2.61,2.61,0,0,1,.34-1c.06-.09.11-.09.12-.09h.12l.16,0s0,0,.09.1a2.38,2.38,0,0,1,.34.88,20.14,20.14,0,0,1,.28,2.72v.08a.88.88,0,0,0,1.71.22,8,8,0,0,0,.41-3.39,4.17,4.17,0,0,0-.69-2,2.76,2.76,0,0,0-1.06-.89,2.89,2.89,0,0,0-1.33-.25,2.55,2.55,0,0,0-2.21,1.48,4.12,4.12,0,0,0-.32,2A8.26,8.26,0,0,0,307.82,45.56Z"/><path class="cls-1" d="M326.85,37.17a8.76,8.76,0,0,0,1.24.76,9.91,9.91,0,0,0,1.34.55,5.89,5.89,0,0,0,1.47.28,1.08,1.08,0,0,0,.76-.24,1.12,1.12,0,0,0,.17-1.56,6.26,6.26,0,0,0-1.1-1,9.37,9.37,0,0,0-1.24-.76,8.69,8.69,0,0,0-1.33-.56,5.47,5.47,0,0,0-1.48-.28,1.12,1.12,0,0,0-.92,1.81A5.28,5.28,0,0,0,326.85,37.17Z"/><path class="cls-1" d="M328,60.81c2.93-3.74,1-6.94,1-7.07a.85.85,0,0,0-1-.35c-1.5.55-8.91.94-12.2.85A22.42,22.42,0,0,1,308.57,53a.85.85,0,0,0-1,.25c-.86,1.09-1.08,2.79-.61,4.81.53,2.29,2.05,5.07,4.24,6.1a14.9,14.9,0,0,0,6.25,1.31C321.39,65.42,325.47,64,328,60.81Zm-1.38-5.46c.43-.06.82-.12,1.15-.19a4.91,4.91,0,0,1-1.08,4.62c-.14.18-.29.34-.44.5Zm-4.24.39c.89-.06,1.75-.12,2.55-.2l-.47,6.29a11.13,11.13,0,0,1-2.12,1.08Zm-1.66.09-.05,7.6a15.6,15.6,0,0,1-2,.31l-.25-7.84C319.09,55.89,319.88,55.86,320.7,55.83Zm-12.09,1.81a5.21,5.21,0,0,1,0-2.9l.71.22.64,5.8A9.46,9.46,0,0,1,308.61,57.64Zm3.33,5-.1-.05-.79-7.18c.49.11,1,.2,1.63.28l.52,7.44A10,10,0,0,1,311.94,62.6Zm3,.93-.54-7.69,1.34.07h1l.26,7.84A15,15,0,0,1,314.9,63.53Z"/><path class="cls-1" d="M330.11,111Z"/><path class="cls-1" d="M342.89,111Z"/><path class="cls-1" d="M363.29,27.28c-.86,0-1.46,1.55-1.34,3.33s.91,3.19,1.76,3.13,1.45-1.55,1.33-3.33S364.14,27.22,363.29,27.28Z"/><path class="cls-1" d="M375.64,28c-.8-.12-1.62,1.06-1.83,2.63s.26,2.94,1.05,3.05,1.62-1.07,1.83-2.63S376.44,28.14,375.64,28Z"/><path class="cls-1" d="M393,24.31l.1-.08c.3-.23.67-.53,1-.77s.73-.48,1.11-.7a11.53,11.53,0,0,1,2.36-1,11.33,11.33,0,0,1,2.54-.51c.43-.06.88,0,1.32-.06s.9,0,1.37,0H403a.83.83,0,0,0,.22-1.63,12.4,12.4,0,0,0-1.51-.4,10.18,10.18,0,0,0-4.78.28A9.66,9.66,0,0,0,394,20.86c-.22.16-.42.34-.63.5s-.39.37-.58.56a7.21,7.21,0,0,0-1,1.31A.83.83,0,0,0,393,24.31Z"/><path class="cls-1" d="M393.54,19.1l.1-.05c.22-.12.49-.29.76-.41l.79-.4a14.71,14.71,0,0,1,1.63-.62,8.63,8.63,0,0,1,1.66-.36,10.54,10.54,0,0,1,1.69-.05h.09a.8.8,0,0,0,.24-1.56,6.24,6.24,0,0,0-2.14-.31,7.72,7.72,0,0,0-2.14.34,9.07,9.07,0,0,0-1.94.85,7.9,7.9,0,0,0-1.68,1.3.8.8,0,0,0,.94,1.27Z"/><path class="cls-1" d="M285.33,63.11l.1,0c.54-.24,1-.53,1.53-.76s1-.48,1.53-.64a15.63,15.63,0,0,1,3.11-.86,17.82,17.82,0,0,1,3.19-.22c.54,0,1.08,0,1.63.09s1.11.13,1.61.19h.14a.82.82,0,0,0,.78-.35.84.84,0,0,0-.2-1.16,8.12,8.12,0,0,0-1.8-.93A10.94,10.94,0,0,0,291.1,58a8,8,0,0,0-1,.23,6.05,6.05,0,0,0-.94.3l-.91.36-.87.46a5.44,5.44,0,0,0-.83.51c-.27.19-.53.37-.79.57a13.22,13.22,0,0,0-1.39,1.31.83.83,0,0,0,.93,1.34Z"/><path class="cls-1" d="M287,57.28l.12-.05c.36-.16.7-.36,1-.52s.68-.34,1-.45a10.49,10.49,0,0,1,2.09-.58,11.61,11.61,0,0,1,2.13-.13c.37,0,.73,0,1.1.05s.75.1,1.06.12l.21,0a.83.83,0,0,0,.55-1.5,5.69,5.69,0,0,0-1.29-.71,7.13,7.13,0,0,0-1.37-.38,7.34,7.34,0,0,0-2.84.05,7.71,7.71,0,0,0-1.37.39l-.66.27-.62.34a4.21,4.21,0,0,0-.59.38l-.55.41a11,11,0,0,0-1,.95.83.83,0,0,0,.94,1.34Z"/><ellipse class="cls-1" cx="356.54" cy="112.39" rx="4.18" ry="0.85"/><path class="cls-1" d="M366.27,112c1.92,0,3.47-.34,3.47-.77s-1.55-.76-3.47-.76-3.47.34-3.47.76S364.35,112,366.27,112Z"/><path class="cls-1" d="M375.26,111.79c-1.93,0-3.49.36-3.49.81s1.56.8,3.49.8,3.49-.36,3.49-.8S377.19,111.79,375.26,111.79Z"/><path class="cls-1" d="M366.05,113.07c-2.47,0-4.48.46-4.48,1s2,1,4.48,1,4.49-.46,4.49-1S368.53,113.07,366.05,113.07Z"/><path class="cls-1" d="M360.54,92.87a.57.57,0,0,0,.67.29.56.56,0,0,0,.38-.7l-3.48-11.54a1,1,0,0,0-.09-.22A1.51,1.51,0,0,0,355.3,82Z"/></svg>